General
Format                                   : Flash Video
File size                                : 108 MiB
Duration                                 : 21mn 10s
Overall bit rate mode                    : Variable
Overall bit rate                         : 716 Kbps
Tagging application                      : Yet Another Metadata Injector for FLV - Version 1.2

Video
Format                                   : Sorenson Spark
Codec ID                                 : 2
Duration                                 : 21mn 10s
Bit rate                                 : 589 Kbps
Width                                    : 480 pixels
Height                                   : 360 pixels
Display aspect ratio                     : 4:3
Frame rate mode                          : Constant
Frame rate                               : 25.000 fps
Bit depth                                : 8 bits
Bits/(Pixel*Frame)                       : 0.136
Stream size                              : 91.6 MiB (85%)

Audio
Format                                   : MPEG Audio
Format version                           : Version 1
Format profile                           : Layer 3
Mode                                     : Joint stereo
Codec ID                                 : 2
Codec ID/Hint                            : MP3
Duration                                 : 21mn 9s
Bit rate mode                            : Variable
Bit rate                                 : 103 Kbps
Channel(s)                               : 2 channels
Sampling rate                            : 44.1 KHz
Compression mode                         : Lossy
Stream size                              : 16.4 MiB (15%)

** GREEK **
Kali proboli kai SEED-arete! :)